<?xml version="1.0" encoding="UTF-8" standalone="no"?>
<!-- Created with Inkscape (http://www.inkscape.org/) -->

<svg
   width="250"
   height="100"
   viewBox="0 0 66.145833 26.458333"
   version="1.1"
   id="svg5"
   xmlns="http://www.w3.org/2000/svg"
   xmlns:svg="http://www.w3.org/2000/svg">
  <defs
     id="defs2" />
  <g
     id="layer1">
    <g
       aria-label="libari.dho@gmail.com"
       id="text4842"
       style="font-size:5.64444px;line-height:1.25;font-family:'GFS Theokritos';-inkscape-font-specification:'GFS Theokritos';letter-spacing:0px;word-spacing:0px;stroke-width:0.264583;fill:#d14408;fill-opacity:1">
      <path
         d="m 18.038003,21.724211 h -0.699911 l 0.519289,-3.732857 0.714962,-0.09784 z"
         style="font-family:Timmana;-inkscape-font-specification:Timmana;fill:#d14408;fill-opacity:1"
         id="path51477" />
      <path
         d="m 20.039889,18.247236 q -0.0301,0.180622 -0.158045,0.301036 -0.12794,0.112889 -0.29351,0.112889 -0.173097,0 -0.270934,-0.112889 -0.09784,-0.120414 -0.07526,-0.301036 0.03763,-0.188148 0.16557,-0.308563 0.127941,-0.120415 0.301037,-0.120415 0.16557,0 0.255882,0.120415 0.09784,0.120415 0.07526,0.308563 z m -0.541867,3.476975 h -0.69991 l 0.361244,-2.619021 0.722488,-0.09784 z"
         style="font-family:Timmana;-inkscape-font-specification:Timmana;fill:#d14408;fill-opacity:1"
         id="path51479" />
      <path
         d="m 21.657953,19.594375 q -0.06773,0 -0.135466,0.0301 -0.06773,0.02258 -0.127941,0.06021 -0.06021,0.03763 -0.112889,0.08279 -0.04515,0.03763 -0.06773,0.06773 l -0.16557,1.181569 q 0.07526,0.06021 0.142992,0.112889 0.06773,0.04516 0.158044,0.04516 0.263408,0 0.398874,-0.173097 0.142993,-0.180622 0.210726,-0.587021 0.06021,-0.459082 -0.02258,-0.639704 -0.07526,-0.180622 -0.278459,-0.180622 z m -0.888058,-1.603021 0.714962,-0.09784 -0.2032,1.467555 q 0.06021,-0.04516 0.135467,-0.105363 0.08278,-0.06773 0.173096,-0.120415 0.09784,-0.06021 0.210726,-0.09784 0.112888,-0.03763 0.233303,-0.03763 0.173096,0 0.316089,0.08278 0.142992,0.07526 0.233303,0.240829 0.09031,0.16557 0.120415,0.421452 0.03763,0.255881 -0.01505,0.609599 -0.05268,0.353719 -0.16557,0.617126 -0.105363,0.263407 -0.263407,0.436503 -0.150519,0.173096 -0.331141,0.263407 -0.180622,0.08279 -0.376296,0.08279 -0.12794,0 -0.225777,-0.0301 -0.09784,-0.0301 -0.173097,-0.08279 -0.07526,-0.05268 -0.12794,-0.112889 -0.04516,-0.06021 -0.08279,-0.112889 l -0.105363,0.308563 h -0.587022 z"
         style="font-family:Timmana;-inkscape-font-specification:Timmana;fill:#d14408;fill-opacity:1"
         id="path51481" />
      <path
         d="m 23.990979,21.197396 q 0.127941,0 0.248355,-0.07526 0.127941,-0.08278 0.2032,-0.173096 l 0.188148,-1.384769 q -0.06773,-0.0075 -0.150518,-0.0075 -0.07526,-0.0075 -0.16557,-0.0075 -0.255882,0 -0.4064,0.180622 -0.142993,0.180622 -0.210726,0.654755 -0.06021,0.466607 0.0075,0.639703 0.07526,0.173096 0.285985,0.173096 z m 1.038577,0.526815 h -0.587022 v -0.316089 q -0.150518,0.135467 -0.361244,0.263407 -0.210726,0.120415 -0.474133,0.120415 -0.16557,0 -0.316088,-0.07526 -0.142993,-0.07526 -0.233304,-0.233304 -0.09031,-0.16557 -0.120415,-0.421451 -0.0301,-0.255882 0.02258,-0.617126 0.05268,-0.398873 0.180622,-0.669807 0.127941,-0.270933 0.301037,-0.436503 0.173096,-0.173096 0.383822,-0.248355 0.210726,-0.07526 0.421451,-0.07526 0.270934,0 0.57197,0.0301 0.308563,0.0301 0.579496,0.08279 z"
         style="font-family:Timmana;-inkscape-font-specification:Timmana;fill:#d14408;fill-opacity:1"
         id="path51483" />
      <path
         d="m 26.301435,21.724211 h -0.69991 l 0.376296,-2.664176 h 0.617125 l -0.02258,0.353718 h 0.0075 q 0.112889,-0.180622 0.285985,-0.301037 0.173097,-0.120414 0.346193,-0.120414 0.08279,0 0.120414,0.02258 0.04516,0.01505 0.08279,0.0301 l -0.142993,0.6096 q -0.04516,-0.0075 -0.120415,-0.0301 -0.06773,-0.02258 -0.150518,-0.02258 -0.09784,0 -0.195674,0.06021 -0.09784,0.06021 -0.248355,0.195674 z"
         style="font-family:Timmana;-inkscape-font-specification:Timmana;fill:#d14408;fill-opacity:1"
         id="path51485" />
      <path
         d="m 28.860242,18.247236 q -0.0301,0.180622 -0.158045,0.301036 -0.12794,0.112889 -0.29351,0.112889 -0.173097,0 -0.270934,-0.112889 -0.09784,-0.120414 -0.07526,-0.301036 0.03763,-0.188148 0.16557,-0.308563 0.127941,-0.120415 0.301037,-0.120415 0.165571,0 0.255882,0.120415 0.09784,0.120415 0.07526,0.308563 z m -0.541866,3.476975 h -0.699911 l 0.361244,-2.619021 0.722488,-0.09784 z"
         style="font-family:Timmana;-inkscape-font-specification:Timmana;fill:#d14408;fill-opacity:1"
         id="path51487" />
      <path
         d="m 29.665506,21.468329 q -0.02258,0.135467 -0.112889,0.218252 -0.09031,0.08279 -0.218251,0.08279 -0.120415,0 -0.195674,-0.08279 -0.06773,-0.08279 -0.04516,-0.218252 0.01505,-0.142992 0.112889,-0.218251 0.09784,-0.08278 0.225778,-0.08278 0.120414,0 0.188148,0.08278 0.06773,0.07526 0.04516,0.218251 z"
         style="font-family:Timmana;-inkscape-font-specification:Timmana;fill:#d14408;fill-opacity:1"
         id="path51489" />
      <path
         d="m 31.057802,21.197396 q 0.12794,0 0.248355,-0.07526 0.127941,-0.08278 0.2032,-0.173096 l 0.188148,-1.30951 q -0.08279,-0.04516 -0.158044,-0.06773 -0.06773,-0.02258 -0.158045,-0.02258 -0.255881,0 -0.4064,0.180622 -0.142992,0.180622 -0.210725,0.654755 -0.06021,0.466607 0.0075,0.639703 0.07526,0.173096 0.285985,0.173096 z m 1.038577,0.526815 h -0.587022 v -0.316089 q -0.150519,0.135467 -0.361244,0.263407 -0.210726,0.120415 -0.474133,0.120415 -0.165571,0 -0.316089,-0.07526 -0.142992,-0.07526 -0.233303,-0.233304 -0.09031,-0.16557 -0.120415,-0.421451 -0.0301,-0.255882 0.02258,-0.617126 0.05268,-0.398873 0.180622,-0.669807 0.12794,-0.270933 0.301036,-0.436503 0.173097,-0.173096 0.383822,-0.248355 0.210726,-0.07526 0.421452,-0.07526 0.120415,0 0.233303,0.0301 0.112889,0.0301 0.218252,0.08279 l 0.158044,-1.136414 0.707437,-0.09784 z"
         style="font-family:Timmana;-inkscape-font-specification:Timmana;fill:#d14408;fill-opacity:1"
         id="path51491" />
      <path
         d="m 33.330628,17.991354 0.714963,-0.09784 -0.210726,1.505184 h 0.0075 q 0.0301,-0.02258 0.09784,-0.09031 0.06773,-0.06773 0.16557,-0.135466 0.09784,-0.06773 0.233304,-0.120415 0.135466,-0.05268 0.293511,-0.05268 0.376296,0 0.49671,0.225777 0.120415,0.225778 0.05268,0.699911 l -0.24083,1.798695 h -0.69991 l 0.218251,-1.625599 q 0.03763,-0.285985 0,-0.383822 -0.03763,-0.105363 -0.203199,-0.105363 -0.07526,0 -0.158045,0.03763 -0.07526,0.0301 -0.142992,0.08279 -0.06021,0.04515 -0.112889,0.09784 -0.05268,0.04516 -0.07526,0.07526 l -0.255882,1.821273 h -0.69991 z"
         style="font-family:Timmana;-inkscape-font-specification:Timmana;fill:#d14408;fill-opacity:1"
         id="path51493" />
      <path
         d="m 37.040901,20.384597 q 0.06773,-0.466607 -0.0075,-0.669807 -0.07526,-0.2032 -0.293511,-0.2032 -0.218251,0 -0.346192,0.2032 -0.127941,0.2032 -0.188148,0.669807 -0.06773,0.481659 0,0.692385 0.06773,0.203199 0.293511,0.203199 0.218251,0 0.346192,-0.210725 0.135467,-0.210726 0.195674,-0.684859 z m 0.722488,0 q -0.05268,0.383822 -0.173096,0.647229 -0.112889,0.263407 -0.285985,0.436503 -0.173096,0.173097 -0.398874,0.248356 -0.225777,0.07526 -0.481658,0.07526 -0.255882,0 -0.459082,-0.07526 -0.203199,-0.08278 -0.33114,-0.248356 -0.120415,-0.173096 -0.16557,-0.436503 -0.04516,-0.263407 0.01505,-0.647229 0.04516,-0.36877 0.16557,-0.632177 0.120415,-0.263408 0.293511,-0.428978 0.173096,-0.16557 0.391348,-0.240829 0.218251,-0.08278 0.474133,-0.08278 0.263407,0 0.466607,0.08278 0.203199,0.07526 0.33114,0.240829 0.127941,0.16557 0.173096,0.428978 0.04516,0.263407 -0.01505,0.632177 z"
         style="font-family:Timmana;-inkscape-font-specification:Timmana;fill:#d14408;fill-opacity:1"
         id="path51495" />
      <path
         d="m 39.750229,21.362967 q 0.120414,0 0.210725,-0.08279 0.09031,-0.09031 0.150519,-0.173096 l 0.150518,-1.038577 q -0.04516,-0.04516 -0.112889,-0.09784 -0.06021,-0.06021 -0.158044,-0.06021 -0.188148,0 -0.301037,0.2032 -0.112888,0.2032 -0.150518,0.549392 -0.105363,0.699911 0.210726,0.699911 z m 0.895584,0.451555 q -0.173096,0 -0.316088,-0.09031 -0.142993,-0.09031 -0.165571,-0.278459 -0.05268,0.05268 -0.112888,0.120414 -0.05268,0.06021 -0.135467,0.120415 -0.08279,0.05268 -0.173096,0.09031 -0.09031,0.03763 -0.2032,0.03763 -0.127941,0 -0.248355,-0.06021 -0.120415,-0.06021 -0.2032,-0.195674 -0.08278,-0.142992 -0.120415,-0.346192 -0.0301,-0.210726 0.01505,-0.511762 0.03763,-0.301037 0.127941,-0.519289 0.09784,-0.225778 0.218251,-0.376296 0.127941,-0.150518 0.270933,-0.218252 0.142993,-0.07526 0.278459,-0.07526 0.158045,0 0.270933,0.06021 0.120415,0.06021 0.218252,0.112888 0.01505,-0.0301 0.02258,-0.09031 0.0075,-0.06773 0.02258,-0.09784 l 0.428977,0.06773 -0.210726,1.497658 q -0.02258,0.142992 -0.0075,0.248355 0.02258,0.09784 0.127941,0.09784 0.158044,0 0.278459,-0.240829 0.127941,-0.248356 0.188148,-0.692385 0.112889,-0.77517 -0.12794,-1.196621 -0.24083,-0.421452 -0.865481,-0.421452 -0.632178,0 -1.068681,0.444029 -0.428977,0.44403 -0.564444,1.34714 -0.120415,0.842903 0.158044,1.286933 0.285985,0.451555 0.970844,0.451555 0.16557,0 0.301037,-0.02258 0.135466,-0.01505 0.210726,-0.02258 l 0.0301,0.451555 q -0.09031,0.0075 -0.278459,0.03763 -0.188148,0.0301 -0.406399,0.0301 -0.436504,0 -0.760118,-0.158045 -0.316089,-0.150518 -0.511763,-0.444029 -0.195674,-0.285985 -0.263407,-0.692385 -0.06021,-0.406399 0.0075,-0.90311 0.08279,-0.519289 0.270933,-0.94074 0.195674,-0.421452 0.481659,-0.714962 0.293511,-0.301037 0.669807,-0.459082 0.383822,-0.16557 0.827851,-0.16557 0.398874,0 0.707436,0.135467 0.308563,0.135466 0.496711,0.391348 0.188148,0.255881 0.263407,0.632177 0.07526,0.36877 0,0.842903 -0.06021,0.451555 -0.2032,0.730014 -0.135466,0.278459 -0.301036,0.436504 -0.165571,0.150518 -0.331141,0.203199 -0.16557,0.06021 -0.285985,0.06021 z"
         style="font-family:Timmana;-inkscape-font-specification:Timmana;fill:#d14408;fill-opacity:1"
         id="path51497" />
      <path
         d="m 43.091733,21.18987 q 0.158045,0 0.285985,-0.09031 0.127941,-0.09031 0.2032,-0.180622 l 0.142993,-1.061154 q -0.120415,-0.150519 -0.2032,-0.2032 -0.08279,-0.05268 -0.195674,-0.05268 -0.248355,0 -0.353718,0.210726 -0.09784,0.2032 -0.142993,0.6096 -0.03763,0.218251 -0.0301,0.36877 0.0075,0.142992 0.03763,0.240829 0.03763,0.09031 0.105363,0.127941 0.06773,0.0301 0.150518,0.0301 z m 0.127941,-2.167465 q 0.225778,0 0.361244,0.112889 0.142993,0.105363 0.263407,0.285985 l 0.09784,-0.361244 h 0.587022 l -0.398874,2.882427 q -0.07526,0.526815 -0.346192,0.77517 -0.270933,0.255881 -0.790222,0.255881 -0.285985,0 -0.511762,-0.06021 -0.218252,-0.06021 -0.338667,-0.09784 L 42.28646,22.33381 q 0.112889,0.03763 0.285985,0.07526 0.173096,0.03763 0.36877,0.03763 0.09031,0 0.16557,-0.01505 0.07526,-0.0075 0.142993,-0.06021 0.06773,-0.05268 0.112888,-0.150519 0.05268,-0.09784 0.06773,-0.263407 l 0.08279,-0.526814 h -0.0075 q -0.120415,0.120415 -0.323615,0.240829 -0.195674,0.120415 -0.444029,0.120415 -0.16557,0 -0.316089,-0.07526 -0.142992,-0.08278 -0.233303,-0.24083 -0.09031,-0.16557 -0.120415,-0.406399 -0.0301,-0.248356 0.02258,-0.579496 0.05268,-0.36877 0.16557,-0.639703 0.112889,-0.278459 0.263407,-0.459082 0.150519,-0.180622 0.331141,-0.270933 0.188148,-0.09784 0.36877,-0.09784 z"
         style="font-family:Timmana;-inkscape-font-specification:Timmana;fill:#d14408;fill-opacity:1"
         id="path51499" />
      <path
         d="m 45.093628,19.060035 h 0.617126 l -0.0301,0.353718 q 0.03763,-0.0301 0.09784,-0.09784 0.06773,-0.07526 0.158044,-0.142992 0.09031,-0.06773 0.210726,-0.120415 0.120415,-0.05268 0.270933,-0.05268 0.233304,0 0.353719,0.09031 0.120414,0.08278 0.150518,0.316088 0.0301,-0.04516 0.09784,-0.112888 0.06773,-0.06773 0.16557,-0.127941 0.09784,-0.06773 0.218252,-0.112889 0.120415,-0.05268 0.255881,-0.05268 0.338667,0 0.459081,0.210725 0.120415,0.210726 0.05268,0.707437 l -0.24083,1.806221 h -0.69991 l 0.233303,-1.746014 q 0.03763,-0.173096 0.0075,-0.270933 -0.0301,-0.09784 -0.16557,-0.09784 -0.06773,0 -0.135467,0.03763 -0.06021,0.0301 -0.120414,0.07526 -0.05268,0.04516 -0.09031,0.09784 -0.03763,0.04515 -0.05268,0.08278 l -0.248355,1.821273 h -0.677333 l 0.248355,-1.746014 q 0.0301,-0.173096 0,-0.270933 -0.0301,-0.09784 -0.173096,-0.09784 -0.06773,0 -0.135466,0.03763 -0.06021,0.0301 -0.112889,0.07526 -0.04516,0.04516 -0.09031,0.09784 -0.03763,0.04515 -0.05268,0.08278 l -0.255881,1.821273 h -0.692385 z"
         style="font-family:Timmana;-inkscape-font-specification:Timmana;fill:#d14408;fill-opacity:1"
         id="path51501" />
      <path
         d="m 49.451129,21.197396 q 0.127941,0 0.248356,-0.07526 0.12794,-0.08278 0.2032,-0.173096 l 0.188148,-1.384769 q -0.06773,-0.0075 -0.150519,-0.0075 -0.07526,-0.0075 -0.16557,-0.0075 -0.255881,0 -0.4064,0.180622 -0.142992,0.180622 -0.210726,0.654755 -0.06021,0.466607 0.0075,0.639703 0.07526,0.173096 0.285985,0.173096 z m 1.038577,0.526815 h -0.587021 v -0.316089 q -0.150519,0.135467 -0.361245,0.263407 -0.210725,0.120415 -0.474133,0.120415 -0.16557,0 -0.316088,-0.07526 -0.142993,-0.07526 -0.233304,-0.233304 -0.09031,-0.16557 -0.120414,-0.421451 -0.0301,-0.255882 0.02258,-0.617126 0.05268,-0.398873 0.180622,-0.669807 0.127941,-0.270933 0.301037,-0.436503 0.173096,-0.173096 0.383822,-0.248355 0.210726,-0.07526 0.421452,-0.07526 0.270933,0 0.57197,0.0301 0.308562,0.0301 0.579495,0.08279 z"
         style="font-family:Timmana;-inkscape-font-specification:Timmana;fill:#d14408;fill-opacity:1"
         id="path51503" />
      <path
         d="m 52.303452,18.247236 q -0.0301,0.180622 -0.158044,0.301036 -0.127941,0.112889 -0.293511,0.112889 -0.173096,0 -0.270933,-0.112889 -0.09784,-0.120414 -0.07526,-0.301036 0.03763,-0.188148 0.16557,-0.308563 0.127941,-0.120415 0.301037,-0.120415 0.16557,0 0.255881,0.120415 0.09784,0.120415 0.07526,0.308563 z m -0.541866,3.476975 h -0.69991 l 0.361244,-2.619021 0.722488,-0.09784 z"
         style="font-family:Timmana;-inkscape-font-specification:Timmana;fill:#d14408;fill-opacity:1"
         id="path51505" />
      <path
         d="m 53.214082,21.724211 h -0.699911 l 0.519289,-3.732857 0.714962,-0.09784 z"
         style="font-family:Timmana;-inkscape-font-specification:Timmana;fill:#d14408;fill-opacity:1"
         id="path51507" />
      <path
         d="m 54.568737,21.468329 q -0.02258,0.135467 -0.112889,0.218252 -0.09031,0.08279 -0.218252,0.08279 -0.120414,0 -0.195673,-0.08279 -0.06773,-0.08279 -0.04516,-0.218252 0.01505,-0.142992 0.112889,-0.218251 0.09784,-0.08278 0.225777,-0.08278 0.120415,0 0.188148,0.08278 0.06773,0.07526 0.04516,0.218251 z"
         style="font-family:Timmana;-inkscape-font-specification:Timmana;fill:#d14408;fill-opacity:1"
         id="path51509" />
      <path
         d="m 56.660943,21.543589 q -0.03763,0.02258 -0.112889,0.06021 -0.07526,0.03763 -0.173096,0.08279 -0.09784,0.03763 -0.225778,0.06773 -0.12794,0.03763 -0.278459,0.03763 -0.53434,0 -0.767644,-0.33114 -0.225777,-0.331141 -0.12794,-1.031052 0.09784,-0.730014 0.436503,-1.076206 0.338667,-0.353718 0.895585,-0.353718 0.210725,0 0.376296,0.04515 0.16557,0.03763 0.225777,0.06021 l -0.158044,0.519289 q -0.04516,-0.01505 -0.16557,-0.04516 -0.112889,-0.03763 -0.255882,-0.03763 -0.263407,0 -0.413925,0.210726 -0.150519,0.203199 -0.210726,0.654755 -0.06773,0.459081 0.0301,0.647229 0.105363,0.180622 0.33114,0.180622 0.158044,0 0.301037,-0.05268 0.142992,-0.06021 0.195674,-0.07526 z"
         style="font-family:Timmana;-inkscape-font-specification:Timmana;fill:#d14408;fill-opacity:1"
         id="path51511" />
      <path
         d="m 58.715507,20.384597 q 0.06773,-0.466607 -0.0075,-0.669807 -0.07526,-0.2032 -0.29351,-0.2032 -0.218252,0 -0.346193,0.2032 -0.12794,0.2032 -0.188148,0.669807 -0.06773,0.481659 0,0.692385 0.06773,0.203199 0.293511,0.203199 0.218252,0 0.346192,-0.210725 0.135467,-0.210726 0.195674,-0.684859 z m 0.722489,0 q -0.05268,0.383822 -0.173096,0.647229 -0.112889,0.263407 -0.285985,0.436503 -0.173097,0.173097 -0.398874,0.248356 -0.225778,0.07526 -0.481659,0.07526 -0.255881,0 -0.459081,-0.07526 -0.2032,-0.08278 -0.331141,-0.248356 -0.120414,-0.173096 -0.16557,-0.436503 -0.04516,-0.263407 0.01505,-0.647229 0.04515,-0.36877 0.16557,-0.632177 0.120415,-0.263408 0.293511,-0.428978 0.173096,-0.16557 0.391348,-0.240829 0.218252,-0.08278 0.474133,-0.08278 0.263407,0 0.466607,0.08278 0.2032,0.07526 0.33114,0.240829 0.127941,0.16557 0.173097,0.428978 0.04515,0.263407 -0.01505,0.632177 z"
         style="font-family:Timmana;-inkscape-font-specification:Timmana;fill:#d14408;fill-opacity:1"
         id="path51513" />
      <path
         d="m 60.032542,19.060035 h 0.617125 l -0.0301,0.353718 q 0.03763,-0.0301 0.09784,-0.09784 0.06773,-0.07526 0.158045,-0.142992 0.09031,-0.06773 0.210726,-0.120415 0.120414,-0.05268 0.270933,-0.05268 0.233303,0 0.353718,0.09031 0.120415,0.08278 0.150518,0.316088 0.0301,-0.04516 0.09784,-0.112888 0.06773,-0.06773 0.165571,-0.127941 0.09784,-0.06773 0.218251,-0.112889 0.120415,-0.05268 0.255882,-0.05268 0.338666,0 0.459081,0.210725 0.120414,0.210726 0.05268,0.707437 l -0.240829,1.806221 h -0.699911 l 0.233304,-1.746014 q 0.03763,-0.173096 0.0075,-0.270933 -0.0301,-0.09784 -0.165571,-0.09784 -0.06773,0 -0.135466,0.03763 -0.06021,0.0301 -0.120415,0.07526 -0.05268,0.04516 -0.09031,0.09784 -0.03763,0.04515 -0.05268,0.08278 l -0.248355,1.821273 H 60.9206 l 0.248356,-1.746014 q 0.0301,-0.173096 0,-0.270933 -0.0301,-0.09784 -0.173097,-0.09784 -0.06773,0 -0.135466,0.03763 -0.06021,0.0301 -0.112889,0.07526 -0.04516,0.04516 -0.09031,0.09784 -0.03763,0.04515 -0.05268,0.08278 l -0.255882,1.821273 h -0.692384 z"
         style="font-family:Timmana;-inkscape-font-specification:Timmana;fill:#d14408;fill-opacity:1"
         id="path51515" />
    </g>
    <g
       style="fill:none"
       id="g14958"
       transform="matrix(1.4174076,0,0,1.4174076,10.505479,21.661214)">
      <path
         fill-rule="evenodd"
         clip-rule="evenodd"
         d="m -4.3703518,-9.9122986 c 0,-1.8777684 1.522232,-3.4000004 3.39999199,-3.4000004 1.8777601,0 3.40000011,1.522232 3.40000011,3.4000004 0,1.87776 -1.52224001,3.4000001 -3.40000011,3.4000001 -0.66887999,0 -1.29149199,-0.19272 -1.81680799,-0.52556 -0.097764,-0.06192 -0.21756,-0.07848 -0.328456,-0.0454 l -1.15166,0.34372 0.433616,-1.01464 c 0.051252,-0.1199201 0.040824,-0.2572801 -0.027944,-0.3680801 -0.322468,-0.51964 -0.50874,-1.13248 -0.50874,-1.79004 z m 3.39999199,-4.2000004 c -2.31958799,0 -4.19999209,1.880404 -4.19999209,4.2000004 0,0.73524 0.189256,1.42732 0.521852,2.02908 l -0.689672,1.6137201 c -0.060969,0.14268 -0.033944,0.30772 0.06934,0.42348 0.103284,0.1158 0.2642,0.1614 0.412868,0.117 l 1.7997681,-0.53708 c 0.614816,0.3524 1.327316,0.5538 2.08583599,0.5538 2.31960011,0 4.20000011,-1.8804 4.20000011,-4.2000001 0,-2.3195964 -1.8804,-4.2000004 -4.20000011,-4.2000004 z m 0.9170001,5.0729604 -0.5256801,0.37028 c -0.2462,-0.14024 -0.51839999,-0.336 -0.79143999,-0.60904 -0.28384,-0.28384 -0.494272,-0.57688 -0.649432,-0.8456804 l 0.334072,-0.28356 c 0.14336,-0.12168 0.1826,-0.326828 0.09428,-0.492848 l -0.425664,-0.8 c -0.05732,-0.107724 -0.160672,-0.183392 -0.280676,-0.205496 -0.120008,-0.0221 -0.243536,0.01178 -0.335472,0.09202 l -0.126204,0.110144 c -0.303492,0.264876 -0.482984,0.70014 -0.33422,1.14086 0.154228,0.45688 0.483368,1.1759604 1.157644,1.8502404 0.725432,0.72544 1.46231199,1.0111201 1.89323209,1.1220801 0.3472,0.08936 0.67576,-0.03044 0.90728,-0.21908 L 1.1009603,-8.0022186 c 0.1012,-0.08244 0.1558,-0.20912 0.14628,-0.33932 -0.00956,-0.1302 -0.08204,-0.24756 -0.1942,-0.3144 l -0.67132001,-0.4 c -0.1356,-0.08076 -0.306,-0.07428 -0.43508,0.0166 z"
         fill="#000000"
         id="path2"
         style="fill:#25d366;fill-opacity:1;stroke-width:0.4" />
    </g>
    <g
       style="fill:none"
       id="g14996"
       transform="matrix(0.49609375,0,0,0.49609375,2.9959491,13.87671)">
      <path
         d="M 4,7.00005 10.2,11.65 c 1.0667,0.8 2.5333,0.8 3.6,0 L 20,7"
         stroke="#000000"
         stroke-width="2"
         stroke-linecap="round"
         stroke-linejoin="round"
         id="path2-3"
         style="stroke:#075e54;stroke-opacity:1" />
      <rect
         x="3"
         y="5"
         width="18"
         height="14"
         rx="2"
         stroke="#000000"
         stroke-width="2"
         stroke-linecap="round"
         id="rect4"
         style="stroke:#075e54;stroke-opacity:1" />
    </g>
    <g
       aria-label="(16) 98194-3623"
       id="text5732"
       style="font-size:7.05556px;line-height:1.25;font-family:'GFS Theokritos';-inkscape-font-specification:'GFS Theokritos';letter-spacing:0px;word-spacing:0px;fill:#d14408;stroke-width:0.264583">
      <path
         d="m 22.871332,5.9881116 q -0.122297,0.1128889 -0.29163,0.3574817 -0.169334,0.2351853 -0.32926,0.5738522 -0.159926,0.3386669 -0.301037,0.7714079 -0.141111,0.432741 -0.206963,0.9407414 -0.07526,0.5080003 -0.05644,0.9407413 0.01881,0.4233336 0.08467,0.7620009 0.07526,0.329259 0.169334,0.564444 0.09407,0.244593 0.197555,0.376297 l -0.620889,0.385704 q -0.188148,-0.178741 -0.348074,-0.460963 -0.150519,-0.272815 -0.254,-0.649112 -0.09407,-0.366889 -0.122297,-0.8372597 -0.02822,-0.4797781 0.05645,-1.0818525 0.09407,-0.5926671 0.244593,-1.0724452 0.159926,-0.4797781 0.366889,-0.8560746 0.206963,-0.3762965 0.442148,-0.6491115 0.235185,-0.272815 0.479778,-0.4609633 z"
         style="font-family:Timmana;-inkscape-font-specification:Timmana"
         id="path33055" />
      <path
         d="m 25.289025,6.1762598 -0.592667,4.2709662 h -0.893705 l 0.470371,-3.3678545 q -0.206963,0.1505187 -0.413926,0.3010373 -0.197556,0.1505186 -0.376297,0.272815 L 23.162949,7.0981864 q 0.188148,-0.1411112 0.385704,-0.272815 0.206963,-0.1411112 0.376297,-0.2634076 0.178741,-0.1222964 0.329259,-0.2163705 0.150519,-0.1034816 0.235185,-0.1693335 z"
         style="font-family:Timmana;-inkscape-font-specification:Timmana"
         id="path33057" />
      <path
         d="m 27.132877,8.3117427 q -0.29163,0 -0.489186,0.1975557 -0.08467,0.2351853 -0.122296,0.5644448 -0.04704,0.3668891 0.05644,0.5926671 0.103482,0.2163705 0.32926,0.2163705 0.235185,0 0.376296,-0.2163705 0.150519,-0.2163706 0.216371,-0.6302968 0.04704,-0.3668891 -0.05645,-0.5456299 Q 27.33984,8.3117427 27.132877,8.3117427 Z M 28.1771,6.6842602 q -0.385704,0.159926 -0.733779,0.432741 -0.338667,0.272815 -0.573852,0.7337782 0.131704,-0.03763 0.272815,-0.075259 0.150519,-0.047037 0.329259,-0.047037 0.244593,0 0.432742,0.094074 0.188148,0.094074 0.310444,0.2634076 0.122297,0.1693334 0.159926,0.4045188 0.04704,0.2257779 0.0094,0.4891855 -0.04704,0.3857039 -0.197556,0.6773337 -0.150519,0.2822224 -0.366889,0.4797782 -0.216371,0.197556 -0.489186,0.301037 -0.263407,0.09407 -0.54563,0.09407 -0.29163,0 -0.526815,-0.09407 -0.235185,-0.103481 -0.395111,-0.310444 -0.150519,-0.2069636 -0.216371,-0.5268156 -0.05644,-0.3198521 0.0094,-0.7714079 0.07526,-0.5738523 0.301037,-1.0160007 0.225778,-0.4421484 0.536222,-0.7808153 0.319853,-0.3386669 0.705557,-0.5738522 0.385703,-0.2351854 0.809037,-0.3951114 z"
         style="font-family:Timmana;-inkscape-font-specification:Timmana"
         id="path33059" />
      <path
         d="m 28.713311,11.275078 q 0.131704,-0.131704 0.29163,-0.376297 0.159926,-0.235185 0.319852,-0.573852 0.169333,-0.3386667 0.310444,-0.7714077 0.141112,-0.432741 0.216371,-0.9407414 Q 29.91746,8.114187 29.898645,7.681446 29.889237,7.248705 29.813978,6.9194455 29.748126,6.5807786 29.644645,6.3455933 29.541163,6.1010005 29.456496,5.9881116 l 0.611482,-0.3951114 q 0.178741,0.1881483 0.32926,0.4609633 0.159926,0.2634076 0.263407,0.6397041 0.103482,0.3762965 0.131704,0.8560746 0.02822,0.4797781 -0.04704,1.0630377 -0.08467,0.5832597 -0.254,1.0724452 -0.159926,0.4797779 -0.366889,0.8560749 -0.206963,0.376296 -0.442149,0.658519 -0.235185,0.291629 -0.460963,0.460963 z"
         style="font-family:Timmana;-inkscape-font-specification:Timmana"
         id="path33061" />
      <path
         d="m 34.790489,8.3305575 q 0.282222,0 0.479778,-0.2163705 0.03763,-0.1128889 0.07526,-0.2540001 0.04704,-0.1505187 0.04704,-0.3198521 0.05644,-0.3668891 -0.04704,-0.5738522 -0.103481,-0.2163705 -0.329259,-0.2163705 -0.235185,0 -0.385704,0.2163705 -0.150519,0.2163705 -0.206963,0.6302967 -0.05645,0.3762965 0.04704,0.5550374 0.112889,0.1787408 0.319852,0.1787408 z m -1.05363,1.6180752 q 0.385704,-0.1505187 0.72437,-0.4233337 0.348075,-0.2822224 0.58326,-0.7431856 -0.112889,0.047037 -0.254,0.084667 -0.141111,0.03763 -0.319852,0.03763 -0.254,0 -0.442149,-0.084667 Q 33.84034,8.7256689 33.708636,8.5657429 33.58634,8.3964094 33.539303,8.1612241 q -0.03763,-0.2445928 -0.0094,-0.5174077 0.05644,-0.385704 0.206963,-0.6679264 0.150518,-0.2916298 0.366889,-0.4797781 0.21637,-0.1975557 0.479778,-0.2916298 0.263407,-0.1034816 0.54563,-0.1034816 0.29163,0 0.526815,0.1034816 0.235185,0.094074 0.385704,0.3010372 0.159926,0.1975557 0.21637,0.5174078 0.06585,0.319852 0,0.7714079 -0.07526,0.5738522 -0.301037,1.025408 -0.21637,0.4421485 -0.536222,0.7808154 -0.319852,0.3386668 -0.705556,0.5832596 -0.385704,0.235185 -0.79963,0.385704 z"
         style="font-family:Timmana;-inkscape-font-specification:Timmana"
         id="path33063" />
      <path
         d="m 37.970187,7.248705 q -0.0094,0.1034815 -0.01882,0.2257779 -0.0094,0.1222964 0.01882,0.2257779 0.02822,0.094074 0.103481,0.1693335 0.08467,0.065852 0.263408,0.065852 0.07526,0 0.122296,-0.056445 0.05644,-0.065852 0.08467,-0.1693335 0.03763,-0.1128889 0.05645,-0.2257779 0.01881,-0.1222964 0.03763,-0.2351853 0.03763,-0.2163705 -0.03763,-0.3480743 -0.06585,-0.1317038 -0.225778,-0.1317038 -0.169334,0 -0.272815,0.1317038 -0.09408,0.1317038 -0.131704,0.3480743 z m -0.395112,1.9849642 q -0.03763,0.3198521 0.05645,0.4797781 0.103481,0.1505186 0.310445,0.1505186 0.206963,0 0.348074,-0.1505186 0.141111,-0.159926 0.188148,-0.4797781 0.03763,-0.3010372 -0.09407,-0.4609632 -0.122296,-0.1599261 -0.404519,-0.1599261 -0.150518,0 -0.254,0.1599261 -0.103481,0.159926 -0.150519,0.4609632 z m 0.921927,-3.1326687 q 0.58326,0 0.865482,0.272815 0.29163,0.272815 0.216371,0.7996302 -0.05644,0.3857039 -0.272815,0.6302967 -0.206964,0.2351853 -0.479779,0.3762965 0.32926,0.1034816 0.489186,0.3480743 0.169333,0.2351854 0.103482,0.6679264 -0.04704,0.3574817 -0.188149,0.6114819 -0.131704,0.2445925 -0.338667,0.4139265 -0.197555,0.159926 -0.47037,0.235185 -0.263408,0.07526 -0.58326,0.07526 -0.301037,0 -0.54563,-0.07526 -0.244593,-0.07526 -0.413926,-0.235185 -0.159926,-0.169334 -0.225778,-0.4139265 -0.06585,-0.2540002 -0.01881,-0.6114819 0.05644,-0.432741 0.301037,-0.6679264 0.244593,-0.2445927 0.592667,-0.3480743 -0.235185,-0.1411112 -0.395111,-0.3762965 -0.150519,-0.2445928 -0.09407,-0.6302967 0.08467,-0.5268152 0.479778,-0.7996302 0.395111,-0.272815 0.978371,-0.272815 z"
         style="font-family:Timmana;-inkscape-font-specification:Timmana"
         id="path33065" />
      <path
         d="m 41.987143,6.1762598 -0.592667,4.2709662 h -0.893704 l 0.47037,-3.3678545 Q 40.764179,7.2298902 40.557216,7.3804088 40.35966,7.5309274 40.180919,7.6532238 L 39.861067,7.0981864 q 0.188149,-0.1411112 0.385704,-0.272815 0.206963,-0.1411112 0.376297,-0.2634076 0.178741,-0.1222964 0.329259,-0.2163705 0.150519,-0.1034816 0.235186,-0.1693335 z"
         style="font-family:Timmana;-inkscape-font-specification:Timmana"
         id="path33067" />
      <path
         d="m 43.576996,8.3305575 q 0.282222,0 0.479778,-0.2163705 0.03763,-0.1128889 0.07526,-0.2540001 0.04704,-0.1505187 0.04704,-0.3198521 0.05644,-0.3668891 -0.04704,-0.5738522 -0.103482,-0.2163705 -0.329259,-0.2163705 -0.235186,0 -0.385704,0.2163705 -0.150519,0.2163705 -0.206964,0.6302967 -0.05644,0.3762965 0.04704,0.5550374 0.112889,0.1787408 0.319852,0.1787408 z m -1.053631,1.6180752 q 0.385704,-0.1505187 0.724371,-0.4233337 0.348074,-0.2822224 0.58326,-0.7431856 -0.112889,0.047037 -0.254,0.084667 -0.141112,0.03763 -0.319852,0.03763 -0.254001,0 -0.442149,-0.084667 Q 42.626847,8.7256689 42.495143,8.5657429 42.372847,8.3964094 42.32581,8.1612241 42.28818,7.9166313 42.316402,7.6438164 42.372847,7.2581124 42.523365,6.97589 42.673884,6.6842602 42.890254,6.4961119 43.106625,6.2985562 43.370033,6.2044821 43.63344,6.1010005 43.915662,6.1010005 q 0.29163,0 0.526816,0.1034816 0.235185,0.094074 0.385704,0.3010372 0.159926,0.1975557 0.21637,0.5174078 0.06585,0.319852 0,0.7714079 -0.07526,0.5738522 -0.301037,1.025408 -0.216371,0.4421485 -0.536223,0.7808154 -0.319852,0.3386668 -0.705556,0.5832596 -0.385704,0.235185 -0.79963,0.385704 z"
         style="font-family:Timmana;-inkscape-font-specification:Timmana"
         id="path33069" />
      <path
         d="m 47.876175,6.1762598 -1.392297,2.4365201 h 0.72437 l 0.09408,-0.752593 0.921926,-0.1222964 -0.131704,0.8748894 h 0.348075 l -0.103482,0.7243709 h -0.329259 l -0.159927,1.1100752 h -0.903111 l 0.159926,-1.1100752 h -1.730964 l 0.07526,-0.5738522 1.495779,-2.5870388 z"
         style="font-family:Timmana;-inkscape-font-specification:Timmana"
         id="path33071" />
      <path
         d="m 50.312682,8.9796691 h -1.608668 l 0.103482,-0.6961486 h 1.589853 z"
         style="font-family:Timmana;-inkscape-font-specification:Timmana"
         id="path33073" />
      <path
         d="m 51.422747,6.3173711 q 0.04704,-0.028222 0.141111,-0.056444 0.103482,-0.03763 0.244593,-0.065852 0.150519,-0.03763 0.32926,-0.065852 0.188148,-0.028222 0.404518,-0.028222 0.649112,0 0.968964,0.272815 0.319852,0.272815 0.244593,0.7996302 -0.05645,0.3857039 -0.272815,0.6302967 -0.206963,0.2351853 -0.470371,0.3762965 0.319852,0.1034816 0.479778,0.3480743 0.169334,0.2351854 0.103482,0.6679264 -0.04704,0.3574817 -0.197556,0.6114819 -0.141111,0.2445925 -0.366889,0.4139265 -0.225778,0.159926 -0.517408,0.235185 -0.29163,0.07526 -0.620889,0.07526 -0.263408,0 -0.470371,-0.04704 -0.197556,-0.04704 -0.348074,-0.103481 -0.141111,-0.06585 -0.244593,-0.112889 -0.09407,-0.05645 -0.131704,-0.06585 l 0.319852,-0.6302969 q 0.02822,0.00941 0.103482,0.056445 0.08467,0.03763 0.197556,0.075259 0.112889,0.03763 0.244592,0.075259 0.141112,0.028222 0.301038,0.028222 0.319852,0 0.526815,-0.1411112 0.206963,-0.1505187 0.263407,-0.498593 0.04704,-0.2916298 -0.122296,-0.4233336 -0.159926,-0.1317038 -0.479778,-0.1317038 -0.159926,0 -0.29163,0 -0.131704,0 -0.188148,0 l 0.09407,-0.6397041 h 0.225778 q 0.141111,0 0.272815,-0.018815 0.131704,-0.018815 0.254,-0.056444 0.01881,-0.018815 0.07526,-0.056445 0.06585,-0.047037 0.122297,-0.1128889 0.06585,-0.075259 0.112889,-0.1787409 0.05644,-0.1034815 0.07526,-0.2257779 0.03763,-0.2634076 -0.112889,-0.385704 -0.150519,-0.1222963 -0.442149,-0.1222963 -0.131703,0 -0.263407,0.028222 -0.122296,0.018815 -0.235185,0.047037 -0.103482,0.018815 -0.178741,0.047037 -0.06585,0.018815 -0.08467,0.028222 z"
         style="font-family:Timmana;-inkscape-font-specification:Timmana"
         id="path33075" />
      <path
         d="m 55.599638,8.3117427 q -0.29163,0 -0.489185,0.1975557 -0.08467,0.2351853 -0.122297,0.5644448 -0.04704,0.3668891 0.05645,0.5926671 0.103481,0.2163705 0.329259,0.2163705 0.235186,0 0.376297,-0.2163705 0.150518,-0.2163706 0.21637,-0.6302968 0.04704,-0.3668891 -0.05644,-0.5456299 -0.103482,-0.1787409 -0.310445,-0.1787409 z m 1.044223,-1.6274825 q -0.385704,0.159926 -0.733778,0.432741 -0.338667,0.272815 -0.573852,0.7337782 0.131703,-0.03763 0.272815,-0.075259 0.150518,-0.047037 0.329259,-0.047037 0.244593,0 0.432741,0.094074 0.188148,0.094074 0.310445,0.2634076 0.122296,0.1693334 0.159926,0.4045188 0.04704,0.2257779 0.0094,0.4891855 -0.04704,0.3857039 -0.197555,0.6773337 -0.150519,0.2822224 -0.36689,0.4797782 -0.21637,0.197556 -0.489185,0.301037 -0.263408,0.09407 -0.54563,0.09407 -0.29163,0 -0.526815,-0.09407 -0.235186,-0.103481 -0.395112,-0.310444 -0.150518,-0.2069636 -0.21637,-0.5268156 -0.05645,-0.3198521 0.0094,-0.7714079 0.07526,-0.5738523 0.301038,-1.0160007 0.225777,-0.4421484 0.536222,-0.7808153 0.319852,-0.3386669 0.705556,-0.5738522 0.385704,-0.2351854 0.809038,-0.3951114 z"
         style="font-family:Timmana;-inkscape-font-specification:Timmana"
         id="path33077" />
      <path
         d="m 59.663629,10.447226 h -2.483558 l 0.07526,-0.6208897 q 0.103481,-0.094074 0.263407,-0.2445928 0.169334,-0.1505186 0.357482,-0.3386669 0.197556,-0.1975556 0.404519,-0.4139261 0.206963,-0.225778 0.376296,-0.4609633 0.178741,-0.2351853 0.301038,-0.4703707 0.122296,-0.2351853 0.169333,-0.4515558 0.07526,-0.6397041 -0.489185,-0.6397041 -0.122297,0 -0.244593,0.028222 -0.122297,0.018815 -0.235186,0.047037 -0.103481,0.018815 -0.188148,0.047037 -0.07526,0.028222 -0.122296,0.056445 -0.0094,-0.1505186 -0.02822,-0.3010372 -0.0094,-0.1599261 -0.02822,-0.3104447 0.05644,-0.03763 0.169334,-0.075259 0.112889,-0.047037 0.263407,-0.084667 0.150519,-0.047037 0.338667,-0.075259 0.188148,-0.03763 0.385704,-0.03763 0.639704,0 0.912519,0.3010373 0.272815,0.2916298 0.197556,0.8560746 -0.04704,0.3668891 -0.225778,0.7149634 -0.178741,0.3480743 -0.442148,0.6679264 -0.254001,0.3104446 -0.54563,0.592667 -0.29163,0.2822224 -0.555038,0.5080004 0.338667,-0.00941 0.686741,-0.028222 0.357482,-0.018815 0.790223,-0.018815 z"
         style="font-family:Timmana;-inkscape-font-specification:Timmana"
         id="path33079" />
      <path
         d="m 61.112366,6.3173711 q 0.04704,-0.028222 0.141111,-0.056444 0.103482,-0.03763 0.244593,-0.065852 0.150519,-0.03763 0.32926,-0.065852 0.188148,-0.028222 0.404518,-0.028222 0.649112,0 0.968964,0.272815 0.319852,0.272815 0.244593,0.7996302 -0.05645,0.3857039 -0.272815,0.6302967 -0.206963,0.2351853 -0.470371,0.3762965 0.319852,0.1034816 0.479778,0.3480743 0.169334,0.2351854 0.103482,0.6679264 -0.04704,0.3574817 -0.197556,0.6114819 -0.141111,0.2445925 -0.366889,0.4139265 -0.225778,0.159926 -0.517408,0.235185 -0.29163,0.07526 -0.620889,0.07526 -0.263408,0 -0.470371,-0.04704 -0.197556,-0.04704 -0.348074,-0.103481 -0.141111,-0.06585 -0.244593,-0.112889 -0.09407,-0.05645 -0.131704,-0.06585 l 0.319852,-0.6302969 q 0.02822,0.00941 0.103482,0.056445 0.08467,0.03763 0.197556,0.075259 0.112889,0.03763 0.244592,0.075259 0.141112,0.028222 0.301038,0.028222 0.319852,0 0.526815,-0.1411112 0.206963,-0.1505187 0.263407,-0.498593 0.04704,-0.2916298 -0.122296,-0.4233336 -0.159926,-0.1317038 -0.479778,-0.1317038 -0.159926,0 -0.29163,0 -0.131704,0 -0.188148,0 l 0.09407,-0.6397041 h 0.225778 q 0.141111,0 0.272815,-0.018815 0.131704,-0.018815 0.254,-0.056444 0.01881,-0.018815 0.07526,-0.056445 0.06585,-0.047037 0.122297,-0.1128889 0.06585,-0.075259 0.112889,-0.1787409 0.05644,-0.1034815 0.07526,-0.2257779 0.03763,-0.2634076 -0.112889,-0.385704 -0.150519,-0.1222963 -0.442148,-0.1222963 -0.131704,0 -0.263408,0.028222 -0.122296,0.018815 -0.235185,0.047037 -0.103482,0.018815 -0.178741,0.047037 -0.06585,0.018815 -0.08467,0.028222 z"
         style="font-family:Timmana;-inkscape-font-specification:Timmana"
         id="path33081" />
    </g>
  </g>
</svg>
